# xmcd
#
# Track frame offsets: 
#        150
#        17775
#        38475
#        55800
#        71700
#        89175
#        105600
#        121725
#        142175
#        161250
#        175425
#        197850
#        211425
#
# Disc length: 3029 seconds
#
# Revision: 0
# Processed by: cddbd v1.4PL0 Copyright (c) Steve Scherf et al.
# Submitted via: ExactAudioCopy v0.90b4
#
DISCID=bd0bd30d
DTITLE=Fernest Arceneaux and The Thunders - Gumbo Special
DYEAR=1987
DGENRE=
TTITLE0=Ooh Pooh Doo
TTITLE1=Dansez Codine (The Fish Song)
TTITLE2=Candy Licker
TTITLE3=St. James Infirmery
TTITLE4=Jambalaya
TTITLE5=Jolie Blonde
TTITLE6=Dog Hill
TTITLE7=Walking To New Orleans
TTITLE8=C'est pas la peine blayer
TTITLE9=Joe Pete
TTITLE10=Mountain Top
TTITLE11=Big Mamou
TTITLE12=Got You On My Mind
EXTD=
EXTT0=
EXTT1=
EXTT2=
EXTT3=
EXTT4=
EXTT5=
EXTT6=
EXTT7=
EXTT8=
EXTT9=
EXTT10=
EXTT11=
EXTT12=
PLAYORDER=
